<?xml version="1.0" encoding="utf-8"?>
<!-- Generator: Adobe Illustrator 24.0.1, SVG Export Plug-In . SVG Version: 6.00 Build 0)  -->
<svg version="1.1" id="Layer_1" xmlns="http://www.w3.org/2000/svg" xmlns:xlink="http://www.w3.org/1999/xlink" x="0px" y="0px"
	 viewBox="0 0 33 52.1" style="enable-background:new 0 0 33 52.1;" xml:space="preserve">
<style type="text/css">
	.st0{fill:none;stroke:#FFFFFF;stroke-width:0.6691;stroke-miterlimit:10;}
	.st1{fill:none;stroke:#000000;stroke-width:0.1445;stroke-miterlimit:10;}
	.st2{fill:none;stroke:#FFFFFF;stroke-width:0.9366;stroke-miterlimit:10;}
	.st3{fill-rule:evenodd;clip-rule:evenodd;fill:#FFFFFF;stroke:#000000;stroke-width:0.1445;stroke-miterlimit:10;}
	.st4{fill-rule:evenodd;clip-rule:evenodd;fill:#FFFFFF;stroke:#000000;stroke-width:0.3345;stroke-miterlimit:10;}
	.st5{fill:none;stroke:#000000;stroke-width:0.3345;stroke-miterlimit:10;}
	.st6{fill:none;stroke:#FFFFFF;stroke-width:0.4682;stroke-miterlimit:10;}
	.st7{fill-rule:evenodd;clip-rule:evenodd;fill:#FFFFFF;stroke:#FFFFFF;stroke-width:0.1445;stroke-miterlimit:10;}
	.st8{fill-rule:evenodd;clip-rule:evenodd;fill:#FFFFFF;}
	.st9{fill:#FFFFFF;}
</style>
<path class="st0" d="M10.31,18.17c0-4.53,3.66-8.19,8.19-8.19s8.24,3.66,8.24,8.19s-3.71,8.19-8.24,8.19
	C13.97,26.36,10.31,22.7,10.31,18.17"/>
<path class="st0" d="M14.31,18.17c0-4.53,1.88-8.19,4.24-8.19s4.29,3.66,4.29,8.19s-1.93,8.19-4.29,8.19
	C16.19,26.36,14.31,22.7,14.31,18.17"/>
<path class="st1" d="M12.77,23.9c1.49-1.45,3.52-2.31,5.73-2.31c2.22,0,4.19,0.82,5.68,2.22"/>
<path class="st0" d="M24.28,12.39c-1.49,1.45-3.52,2.36-5.78,2.36s-4.34-0.91-5.83-2.46"/>
<line class="st0" x1="10.31" y1="18.07" x2="26.64" y2="18.07"/>
<line class="st0" x1="18.45" y1="26.26" x2="18.45" y2="9.98"/>
<line class="st2" x1="26.4" y1="34.79" x2="6.31" y2="34.79"/>
<path class="st3" d="M6.7,28.86l18.45-4.77l1.21,2.41l-1.16,0.72l0.34,1.83l-1.25,0.58v1.78l-12,4.86c0,0,0.05-6.98-5.59-7.37
	C6.65,28.86,6.7,28.86,6.7,28.86z"/>
<path class="st4" d="M6.8,28.96c0,0-0.53-10.98,0.63-11.51c-0.05-2.46,0.19-2.79,0.19-2.79s6.26,0.34,8.62,4.91
	c6.46-1.4,10.74,4.29,10.74,4.29l-10.26,8.19c0,0-4.14-5.97-9.68-3.23L6.8,28.96z"/>
<polyline class="st5" points="25.53,24.96 26.35,26.5 15.47,33.44 "/>
<path class="st5" d="M15.47,33.44c0,0-3.51-6.07-8.67-4.62"/>
<polyline class="st5" points="25.25,27.32 25.53,29.06 13.88,34.89 "/>
<path class="st5" d="M13.88,34.89c0,0-2.12-6.46-7.08-6.07"/>
<line class="st5" x1="6.94" y1="28.82" x2="16.33" y2="19.57"/>
<line class="st6" x1="4.53" y1="35.03" x2="4.58" y2="18.65"/>
<path class="st6" d="M4.58,18.65c0,0-0.1-1.59,0.92-2.22C4.87,5.11,14.51,3.38,14.51,3.38"/>
<path class="st7" d="M6.94,34.55V19.47c0,0,0.14-1.83,0.96-2.22C6.6,7.76,14.65,6.03,14.65,6.03V5.4c0,0-8.33,1.3-7.42,11.66
	c-1.06,0.63-0.92,2.41-0.92,2.41v15.08H6.94z"/>
<polyline class="st5" points="24.28,29.73 24.28,31.42 12.29,36.28 "/>
<path class="st5" d="M12.29,36.28c0,0,0.05-6.98-5.59-7.37"/>
<path class="st8" d="M25.41,36.46c0,0,0.43,1.04,1.4,1.47h-0.66v2.19c0,0,0.36,0,0.43,0c-0.05,0.53,0.43,0.74,0.43,0.74h-1.6
	L25.41,36.46L25.41,36.46z M19.13,41.85v-0.71l0,0c0.35,0,0.63-0.28,0.63-0.66c0-0.36-0.28-0.64-0.63-0.64l0,0v-1.65l0,0
	c0,0,0.15,0.74,0.58,1.09c0.33,0.15,0.61,0.46,0.71,0.84h3.53v-2.19h-0.68c0.97-0.43,1.42-1.47,1.42-1.47v4.4h-4.27
	C20.25,41.42,19.74,41.85,19.13,41.85L19.13,41.85z M19.13,38.19v1.65c-0.38,0-0.66,0.28-0.66,0.64c0,0.38,0.28,0.66,0.66,0.66v0.71
	c-0.64,0-1.14-0.43-1.32-0.99H14.3v0.46c0,0-0.05,0.56-0.28,0.84s-0.58,0.38-0.81,0.43V41.9c0.38-0.28,0.35-0.64,0.35-0.64v-0.41
	h-0.35v-0.74h0.35v-1.35c-0.15,0.03-0.28,0.05-0.35,0.1v-0.79l0.02-0.03c0.84-0.15,1.07-0.81,1.07-0.81v2.87h3.51
	c0.13-0.38,0.38-0.69,0.74-0.86C18.98,38.93,19.11,38.19,19.13,38.19z M13.21,38.09v0.79c-0.28,0.13-0.36,0.33-0.36,0.43
	c-0.03,0.15,0.08,0.46,0.08,0.53c0,0.1-0.05,0.28-0.05,0.28h0.33v0.74h-1.32c0.28-0.43,0.2-0.76,0.18-1.4
	C12.04,38.85,12.39,38.27,13.21,38.09L13.21,38.09z M13.21,41.9v0.69c-0.18,0.03-0.28,0.03-0.28,0.03s-0.69-0.03-0.94-0.2
	c-0.25-0.18,0.05-0.23,0.05-0.23s0.61,0,0.87-0.1C13.03,42.03,13.13,41.95,13.21,41.9L13.21,41.9z M9.24,42.56v-0.38
	c0.18-0.03,0.41-0.05,0.53-0.1c0.69-0.3,0.64-0.81,0.64-0.81v-2.75H9.72c0.99-0.31,1.45-1.27,1.45-1.27v4.07
	c0,0-0.05,0.56-0.28,0.84c-0.41,0.48-1.12,0.46-1.12,0.46S9.5,42.61,9.24,42.56L9.24,42.56z M9.24,40.86h0.48v-1.4
	c0.03-0.53-0.25-0.69-0.48-0.74V40.86z M9.24,38.72v2.14H4.13c0.66-0.38,1.07-1.22,1.07-1.22v0.48h3.76v-0.66c0,0-2.97,0.03-3.69,0
	c0.94-0.61,1.09-1.25,1.09-1.25v0.51h2.62C8.99,38.72,9.09,38.7,9.24,38.72L9.24,38.72z M9.24,42.18v0.38
	c-0.15-0.05-0.3-0.1-0.41-0.15c-0.23-0.18,0.05-0.23,0.05-0.23S9.04,42.18,9.24,42.18z"/>
<g>
	<path class="st9" d="M21.75,45.9c0.03-0.02,0.05-0.01,0.07,0.01c-0.01,0.05-0.02,0.12-0.03,0.22c-0.01,0.13-0.02,0.3-0.02,0.52
		c0,0.25,0,0.43-0.01,0.53c-0.01,0.22-0.07,0.44-0.18,0.68c-0.02,0.04-0.04,0.06-0.05,0.06c-0.01,0-0.02,0-0.03-0.01
		c-0.02-0.01-0.03-0.04-0.02-0.08c0.02-0.07,0.04-0.26,0.06-0.56c-0.02-0.24-0.03-0.51-0.02-0.82
		C21.56,46.32,21.64,46.13,21.75,45.9L21.75,45.9z"/>
	<path class="st9" d="M21.16,46.69c0.06,0.06,0.1,0.13,0.14,0.21c0.01,0.06,0.02,0.11,0.02,0.17c0,0.12-0.03,0.24-0.09,0.38
		c0,0.01-0.07,0.13-0.18,0.36c-0.01,0.03-0.04,0.07-0.1,0.12c-0.13,0.04-0.33,0.09-0.6,0.16c-0.02,0.01-0.03,0-0.04-0.03
		c0-0.01,0.05-0.04,0.14-0.11c0.06-0.04,0.16-0.1,0.31-0.18c0.13-0.07,0.23-0.13,0.3-0.18c0.04-0.05,0.05-0.13,0.03-0.23
		c-0.03-0.12-0.13-0.22-0.29-0.3c-0.01-0.01-0.01-0.03,0-0.05c0.01-0.02,0.02-0.03,0.03-0.05c0.03-0.1,0.07-0.23,0.12-0.38
		C21.02,46.59,21.09,46.63,21.16,46.69L21.16,46.69z"/>
	<path class="st9" d="M20.4,45.9c0.03-0.02,0.05-0.01,0.07,0.01c-0.01,0.05-0.02,0.12-0.03,0.22c-0.01,0.13-0.02,0.3-0.02,0.52
		c0,0.25,0,0.43-0.01,0.53c-0.01,0.22-0.07,0.44-0.18,0.68c-0.02,0.04-0.04,0.06-0.05,0.06c-0.01,0-0.02,0-0.03-0.01
		c-0.02-0.01-0.03-0.04-0.02-0.08c0.02-0.07,0.04-0.26,0.06-0.56c-0.02-0.24-0.03-0.51-0.02-0.82C20.22,46.32,20.29,46.13,20.4,45.9
		L20.4,45.9z"/>
	<path class="st9" d="M19.47,48.05c-0.09,0.01-0.18,0.02-0.27,0.03c-0.05,0.01-0.13,0.03-0.25,0.05c-0.02,0-0.04-0.01-0.04-0.03
		s0.02-0.05,0.06-0.07c0.11-0.07,0.21-0.14,0.32-0.2c0.12-0.08,0.23-0.15,0.3-0.22c0.08-0.09,0.16-0.23,0.23-0.41
		c0.05-0.15,0.11-0.3,0.16-0.45c0.01-0.02,0.03-0.04,0.05-0.04c0.03,0,0.04,0.01,0.04,0.04c0,0.05-0.02,0.17-0.07,0.36
		c-0.09,0.33-0.19,0.6-0.31,0.8C19.64,47.98,19.57,48.03,19.47,48.05L19.47,48.05z"/>
	<path class="st9" d="M18.62,46.8c0.16,0.02,0.28,0.1,0.35,0.25c0.02,0.07,0.04,0.14,0.04,0.22c0,0.12-0.03,0.26-0.09,0.42
		c-0.12,0.31-0.27,0.47-0.47,0.46c-0.09-0.01-0.15-0.07-0.18-0.16c-0.01-0.04-0.01-0.07-0.01-0.11c0-0.09,0.05-0.28,0.14-0.55
		c-0.02,0-0.04-0.01-0.07-0.03c0.02-0.09,0.04-0.16,0.05-0.22c0.01-0.06,0.03-0.15,0.05-0.26C18.46,46.79,18.52,46.79,18.62,46.8
		L18.62,46.8z M18.81,47.62c0-0.06-0.02-0.12-0.05-0.18c-0.05-0.07-0.13-0.11-0.23-0.12c-0.09,0.17-0.12,0.33-0.11,0.46
		c0.02,0.05,0.04,0.09,0.08,0.1c0.01,0,0.03,0,0.04,0c0.06,0,0.13-0.05,0.23-0.15C18.8,47.71,18.81,47.67,18.81,47.62L18.81,47.62z"
		/>
	<path class="st9" d="M18.9,46.12c-0.01,0.01-0.02,0.04-0.04,0.08l0,0c-0.01,0.02-0.03,0.05-0.06,0.09c-0.01,0-0.03,0-0.04,0
		c-0.07,0-0.12,0.03-0.17,0.08c-0.04,0.07-0.07,0.11-0.08,0.12c-0.04,0.05-0.07,0.08-0.11,0.09c-0.03,0.01-0.05,0.01-0.07,0.01
		c-0.03,0-0.05-0.01-0.07-0.03v-0.01c0.02-0.05,0.06-0.1,0.12-0.17c0.02,0.01,0.04,0.01,0.05,0.01c0.03,0,0.05-0.01,0.07-0.03
		c0.03-0.04,0.07-0.11,0.14-0.19c0.05-0.06,0.12-0.09,0.21-0.09c0.01,0,0.03,0.01,0.04,0.02L18.9,46.12L18.9,46.12z"/>
	<path class="st9" d="M17.36,45.43l0.01-0.82c0-0.03,0-0.09,0-0.17c0-0.07,0-0.12,0-0.16c0-0.06,0.01-0.11,0.03-0.15
		c0.02-0.06,0.05-0.12,0.1-0.19c0.02,0,0.04,0,0.06,0.01c-0.03,0.3-0.04,0.57-0.04,0.8c0,0.18,0.01,0.36,0.03,0.53
		c0.02,0.2,0.1,0.32,0.25,0.36h0.01c0.11-0.3,0.24-0.52,0.37-0.65c0.11-0.09,0.21-0.13,0.28-0.13c0.03,0,0.06,0.01,0.08,0.02
		c0.05,0.03,0.07,0.07,0.07,0.12c0,0.04-0.02,0.07-0.05,0.09c-0.01,0-0.05-0.02-0.11-0.04c-0.04-0.02-0.08-0.02-0.12-0.02
		c-0.03,0-0.08,0.04-0.14,0.1c-0.08,0.08-0.12,0.17-0.12,0.25c0,0.13,0.06,0.2,0.19,0.21c0.12,0.01,0.24-0.07,0.36-0.26
		c0.01-0.01,0.02,0,0.04,0.02c-0.05,0.21-0.16,0.41-0.33,0.61c-0.13,0.13-0.28,0.19-0.44,0.19c-0.1,0-0.19-0.03-0.27-0.08
		c-0.09-0.06-0.15-0.13-0.17-0.23h-0.01c-0.05,0.12-0.12,0.23-0.23,0.32c0.11,0.05,0.19,0.11,0.23,0.16c0.04,0.08,0.04,0.16,0,0.24
		c-0.13,0.16-0.25,0.25-0.38,0.28c-0.21,0.02-0.39,0.07-0.55,0.16c-0.19,0.1-0.32,0.24-0.39,0.42c-0.02,0.1-0.04,0.23-0.05,0.36
		c0,0.1-0.01,0.23,0,0.38c0,0.24,0,0.37,0,0.38v0.66c0,0.08-0.02,0.2-0.06,0.36c-0.01,0.03-0.03,0.05-0.05,0.05
		c-0.01,0-0.02-0.01-0.02-0.02l-0.01-0.66c0-0.07,0-0.2-0.01-0.39c0-0.17-0.01-0.3-0.01-0.4c0-0.27,0.02-0.5,0.05-0.69
		c0.06-0.33,0.24-0.6,0.54-0.81c0.04-0.03,0.13-0.08,0.26-0.15c0.05-0.11,0.14-0.22,0.24-0.35c0.1-0.11,0.19-0.22,0.28-0.33
		c0.05-0.07,0.08-0.14,0.1-0.2L17.36,45.43z"/>
	<path class="st9" d="M15.44,47.11c0,0.08-0.01,0.15-0.03,0.24c-0.02,0.14-0.09,0.32-0.22,0.54c-0.04,0.06-0.09,0.1-0.18,0.12
		c-0.07,0.02-0.14,0.04-0.22,0.06c-0.05,0.02-0.13,0.04-0.24,0.07c-0.03,0-0.04-0.01-0.05-0.02c0-0.02,0.02-0.04,0.05-0.06
		c0.11-0.07,0.22-0.13,0.34-0.2c0.12-0.08,0.23-0.16,0.31-0.24c0.03-0.03,0.04-0.08,0.03-0.14c-0.02-0.04-0.04-0.07-0.06-0.08
		c-0.03,0.01-0.05,0.01-0.08,0.01c-0.1,0-0.18-0.03-0.23-0.1c-0.02-0.03-0.03-0.07-0.03-0.1c0-0.04,0.01-0.09,0.04-0.15
		c0.02-0.04,0.04-0.09,0.06-0.14s0.04-0.1,0.05-0.16c0.03-0.06,0.07-0.1,0.12-0.12c0.09-0.02,0.17,0.02,0.22,0.11
		C15.41,46.85,15.44,46.97,15.44,47.11L15.44,47.11z"/>
	<path class="st9" d="M14.19,45.06c0.25-0.21,0.54-0.35,0.86-0.41l0.64-0.12c0.01,0,0.08-0.03,0.2-0.08c0.01,0,0.02,0.01,0.03,0.02
		c0,0.02-0.01,0.04-0.03,0.06s-0.04,0.04-0.05,0.06c-0.17,0.13-0.31,0.2-0.42,0.21c-0.18,0.03-0.35,0.06-0.53,0.09
		c-0.21,0.04-0.37,0.1-0.49,0.19c0.17,0.01,0.4,0.08,0.68,0.22c0.03,0.02,0.05,0.05,0.08,0.1c-0.01,0.04-0.03,0.08-0.08,0.13
		c-0.03,0.03-0.07,0.07-0.11,0.1c-0.13,0.11-0.32,0.27-0.58,0.48c-0.15,0.11-0.25,0.18-0.3,0.21c-0.12,0.07-0.24,0.1-0.35,0.1
		c-0.08,0-0.16-0.03-0.26-0.09c-0.03,0.02-0.08,0.04-0.14,0.07c-0.06,0.03-0.13,0.04-0.19,0.04s-0.11-0.01-0.15-0.03l-0.06-0.05
		c-0.02,0.02-0.07,0.05-0.12,0.1c-0.1,0.08-0.2,0.13-0.31,0.15l-0.01,0.01c-0.01,0.08-0.01,0.15-0.02,0.22
		c-0.01,0.08-0.02,0.16-0.04,0.21c-0.11,0.61-0.34,1.05-0.7,1.34c-0.23,0.19-0.45,0.28-0.66,0.28c-0.08,0-0.17-0.02-0.24-0.05
		c-0.17-0.07-0.3-0.2-0.38-0.39c-0.07-0.16-0.1-0.34-0.09-0.56c0.01-0.33,0.07-0.63,0.18-0.92c0.01-0.01,0.02-0.02,0.04-0.01
		c0.01,0.01,0.02,0.04,0.01,0.07c-0.06,0.23-0.09,0.43-0.09,0.6c0,0.1,0.01,0.2,0.04,0.29c0.05,0.21,0.15,0.34,0.3,0.38
		c0.09,0.03,0.19,0.04,0.28,0.04c0.31,0,0.59-0.14,0.85-0.42c0.14-0.18,0.24-0.37,0.31-0.56c0.04-0.17,0.05-0.3,0.04-0.4
		c-0.01-0.03-0.03-0.06-0.05-0.07c-0.12,0.02-0.22,0.01-0.29-0.02c-0.05-0.04-0.08-0.1-0.08-0.16c0-0.04,0.02-0.1,0.05-0.19
		c0.03-0.1,0.05-0.17,0.06-0.21c0.04-0.12,0.09-0.18,0.18-0.18c0.05,0,0.1,0.02,0.15,0.07s0.08,0.11,0.11,0.19
		c0.02,0.07,0.04,0.14,0.05,0.2h0.04c0.1-0.04,0.16-0.06,0.17-0.06c0.07-0.03,0.12-0.06,0.16-0.11c0.03-0.04,0.08-0.09,0.15-0.15
		c0.02-0.01,0.04,0,0.04,0.02c0.05,0.09,0.13,0.13,0.23,0.12c0.04,0,0.08-0.01,0.11-0.02c-0.03-0.06-0.04-0.13-0.04-0.21
		c0-0.15,0.05-0.28,0.15-0.4c0.09-0.11,0.18-0.16,0.27-0.16c0.06,0,0.11,0.02,0.15,0.06c0.05,0.04,0.07,0.08,0.08,0.14
		c0.02,0.17-0.07,0.34-0.25,0.54c0.15,0.02,0.32-0.04,0.52-0.18c0.11-0.08,0.3-0.22,0.56-0.44c0-0.01,0-0.02,0-0.04
		c-0.02-0.02-0.09-0.07-0.22-0.13c-0.19-0.08-0.38-0.12-0.58-0.12c-0.02-0.01-0.03-0.02-0.03-0.04c0.01-0.03,0.03-0.06,0.07-0.09
		C14.16,45.09,14.19,45.06,14.19,45.06L14.19,45.06z M11.01,45.62c-0.05-0.04-0.11-0.1-0.19-0.19l0.01-0.03
		c0.11-0.14,0.2-0.24,0.28-0.32h0.02c0.07,0.06,0.17,0.14,0.31,0.25c0.01,0.01,0.02,0.02,0.03,0.02l0.22-0.25h0.04
		c0.09,0.09,0.19,0.17,0.31,0.25v0.04c-0.05,0.07-0.15,0.17-0.28,0.31c-0.03,0.01-0.07-0.01-0.13-0.05
		c-0.04-0.03-0.08-0.07-0.12-0.1c-0.05-0.04-0.08-0.08-0.1-0.11H11.4c-0.05,0.06-0.12,0.14-0.23,0.23c-0.02,0-0.05-0.01-0.08-0.03
		C11.04,45.63,11.02,45.62,11.01,45.62L11.01,45.62z M12.56,47.65c-0.03-0.04-0.04-0.07-0.03-0.08l0.28-0.32h0.03
		c0.08,0.08,0.18,0.16,0.3,0.25l0.03,0.03l0.22-0.25h0.03c0.07,0.06,0.17,0.14,0.31,0.25c0.01,0,0.02,0.01,0.02,0.02
		c0,0.03-0.01,0.04-0.01,0.03l-0.25,0.28c-0.02,0.01-0.04,0.02-0.06,0.02c0,0-0.04-0.02-0.12-0.06c-0.05-0.04-0.12-0.11-0.2-0.2
		c-0.05,0.06-0.13,0.14-0.23,0.24c-0.05-0.01-0.11-0.03-0.16-0.08C12.66,47.74,12.61,47.7,12.56,47.65L12.56,47.65z M14.01,44.6
		c0.01,0.02,0,0.04-0.01,0.07l-0.23,0.27c-0.01,0.01-0.03,0.02-0.04,0.02c0,0-0.05-0.02-0.14-0.06c-0.05-0.04-0.12-0.11-0.2-0.2
		c-0.04,0.04-0.08,0.1-0.15,0.18c-0.02,0.02-0.05,0.04-0.1,0.07c-0.06-0.01-0.16-0.08-0.29-0.21c-0.04-0.03-0.05-0.06-0.03-0.08
		c0.09-0.11,0.18-0.21,0.28-0.32h0.02c0.07,0.06,0.17,0.14,0.31,0.25l0.02,0.02c0.05-0.06,0.13-0.14,0.23-0.25h0.04
		C13.81,44.45,13.91,44.53,14.01,44.6L14.01,44.6z M13.86,45.84c0.02-0.05,0-0.1-0.05-0.14c-0.03-0.02-0.06-0.03-0.11-0.03
		c-0.05,0.01-0.12,0.06-0.2,0.16c-0.01,0.02-0.02,0.04-0.01,0.07c0.01,0.05,0.01,0.08,0.01,0.08c0.02,0.06,0.04,0.08,0.04,0.08
		c0.02,0.03,0.04,0.05,0.08,0.06C13.74,46.04,13.82,45.94,13.86,45.84L13.86,45.84z M15.78,43.99c0.01,0.02,0.01,0.04-0.01,0.05
		l-0.24,0.28c-0.02,0.02-0.04,0.02-0.08,0.01c-0.13-0.08-0.23-0.16-0.3-0.27c-0.05,0.06-0.13,0.14-0.23,0.24
		c-0.05-0.01-0.09-0.03-0.14-0.07c-0.05-0.04-0.09-0.08-0.13-0.11c-0.04-0.03-0.06-0.06-0.07-0.09c0.03-0.04,0.12-0.15,0.29-0.33
		h0.02c0.07,0.06,0.17,0.14,0.31,0.25c0.01,0.02,0.02,0.03,0.02,0.02l0.21-0.24c0.01,0,0.02,0,0.04,0
		C15.58,43.84,15.69,43.93,15.78,43.99L15.78,43.99z"/>
</g>
</svg>
