<svg xmlns="http://www.w3.org/2000/svg" viewBox="0 0 50.67 38.81"><defs><style>.cls-1{isolation:isolate;}.cls-2{mix-blend-mode:multiply;}.cls-3{fill:#3d3113;}.cls-4{fill:#3f3314;}.cls-5{fill:#604c1d;}.cls-6{fill:#524119;}.cls-7{fill:#7b5136;}.cls-8{fill:#976342;}.cls-9{fill:#e2c9bb;}.cls-10{fill:#81736b;}.cls-11{fill:#342811;}.cls-12{fill:#b6a397;}.cls-13{fill:#f9dece;}.cls-14{fill:#e2cabb;}.cls-15{fill:#ffe7d7;}</style></defs><title>Asset 2</title><g class="cls-1"><g id="Layer_2" data-name="Layer 2"><g id="Isolation_Mode" data-name="Isolation Mode"><g class="cls-2"><path class="cls-3" d="M44.3,29.45h0l.28-.09.07,0a2.84,2.84,0,0,1,.31-.06h0l.27,0h.55l.27,0h0l.26,0h.08l.29.06.05,0,.29.07,0,0,.32.1.11,0,.27.1.1,0,.39.17,2.33-1.56c-1.44-.64-3.19-1.17-4.53-.22-.76.53-1.55,1-2.32,1.55l.21-.13.06,0Z"/><polygon class="cls-4" points="2.04 15.48 0 17.04 0 6.7 2.04 5.15 2.04 15.48"/><path class="cls-3" d="M6.37,29.45h0l-.28-.09-.07,0a2.84,2.84,0,0,0-.31-.06h0l-.27,0H4.88l-.28,0h0l-.26,0H4.24L4,29.39l-.05,0-.29.07-.06,0-.32.1-.1,0-.28.1-.1,0L2.36,30,0,28.39c3.68-1.61,4.45-.47,6.85,1.33l-.22-.13-.06,0Z"/><polygon class="cls-4" points="48.62 15.48 50.67 17.04 50.67 6.7 48.62 5.15 48.62 15.48"/><path class="cls-5" d="M50.63,28.39l0-1.47L36.9,20.76,25.33,26,50.39,37.26l0-1.47A9.08,9.08,0,0,1,45,29.61C45.07,29.44,46,26.31,50.63,28.39Z"/><path class="cls-5" d="M0,26.92l0,1.47c4.62-2.08,5.56,1.05,5.61,1.22A9.08,9.08,0,0,1,.24,35.79l0,1.47L25.33,26,13.76,20.76Z"/><polygon class="cls-5" points="25.33 15.58 25.33 25.97 36.9 20.76 48.62 15.48 48.62 5.15 25.33 15.58"/><polygon class="cls-6" points="2.04 5.15 2.04 15.48 13.77 20.76 25.33 25.97 25.33 15.58 2.04 5.15"/><polygon class="cls-7" points="25.33 14.01 3.66 3.62 3.66 13.95 14.57 19.23 25.33 24.44 36.1 19.23 47.01 13.95 47.01 3.62 25.33 14.01"/><polygon class="cls-8" points="4.19 12.99 4.19 3.88 25.33 14.01 46.48 3.86 46.48 12.99 25.33 23.23 4.19 12.99"/><polygon class="cls-9" points="25.33 11.53 5.19 1.1 5.19 11.44 15.33 16.71 25.33 21.93 35.34 16.71 45.48 11.44 45.48 1.1 25.33 11.53"/><polygon class="cls-10" points="25.33 12.76 5.19 2.33 5.19 12.66 25.33 22.25 45.48 12.66 45.48 2.33 25.33 12.76"/><polygon class="cls-11" points="0.28 37.26 2.6 38.81 50.67 17.04 48.62 15.48 0.28 37.26"/><polygon class="cls-11" points="50.39 37.26 48.06 38.81 0 17.04 2.04 15.48 50.39 37.26"/><polygon class="cls-12" points="8.68 0 8.68 10.33 5.19 12.66 5.19 1.1 8.68 0"/><polygon class="cls-12" points="41.98 0 45.48 1.1 45.48 12.66 41.98 10.33 41.98 0"/><polygon class="cls-13" points="25.33 9.28 25.33 18.73 41.98 10.33 41.98 0 25.33 9.28"/><path class="cls-14" d="M40.83,2.58,38.52,4,36.13,5.34c-.87.51-1.8,1-2.74,1.58L30.64,8.49,28.23,9.84l-2.36,1.3,0-.09,2.31-1.37,2.39-1.39c.87-.51,1.8-1,2.74-1.58L36,5.14l2.41-1.35,2.36-1.3Z"/><path class="cls-14" d="M40.76,4,38.46,5.4,36.09,6.8,33.36,8.38,30.62,9.94l-2.4,1.35-2.35,1.3,0-.08,2.3-1.38L30.5,9.74l2.73-1.58L36,6.6l2.4-1.36,2.34-1.3Z"/><path class="cls-14" d="M40.69,5.48,38.4,6.86,36,8.25,33.32,9.83,30.6,11.39l-2.39,1.35-2.33,1.31L25.82,14l2.3-1.38,2.36-1.39L33.2,9.61l2.72-1.56L38.31,6.7l2.33-1.3Z"/><path class="cls-14" d="M40.62,6.93,38.34,8.31,36,9.7l-2.7,1.58-2.72,1.57L28.2,14.2l-2.32,1.3-.06-.09L28.11,14l2.35-1.39,2.7-1.58L35.87,9.5l2.38-1.35,2.32-1.3Z"/><path class="cls-14" d="M40.55,8.39,38.28,9.76l-2.34,1.39c-.86.51-1.77,1-2.69,1.58l-2.7,1.57-2.36,1.35L25.88,17l-.06-.08,2.28-1.38,2.34-1.39,2.69-1.58L35.82,11,38.19,9.6,40.5,8.3Z"/><polygon class="cls-15" points="8.68 0 8.68 10.33 25.33 18.73 25.33 9.28 8.68 0"/><path class="cls-14" d="M9.55,2.13l2.36,1.31,2.41,1.35,2.75,1.56,2.74,1.58L22.2,9.32l2.31,1.38-.05.08L22.1,9.48,19.7,8.13,17,6.57,14.2,5,11.82,3.6,9.5,2.22Z"/><path class="cls-14" d="M9.62,3.59,12,4.89l2.4,1.35L17.11,7.8l2.72,1.58,2.38,1.4,2.3,1.37-.05.09-2.34-1.31-2.4-1.35L17,8,14.25,6.44,11.88,5.05,9.57,3.67Z"/><path class="cls-14" d="M9.69,5,12,6.34l2.39,1.35,2.72,1.57c.93.53,1.85,1.07,2.72,1.58l2.36,1.39,2.29,1.37-.05.09-2.33-1.3L19.74,11,17,9.47,14.3,7.89,11.94,6.5,9.64,5.13Z"/><path class="cls-14" d="M9.77,6.49l2.32,1.3,2.37,1.35,2.72,1.57,2.7,1.58,2.35,1.39,2.28,1.38-.05.08-2.32-1.3-2.38-1.35-2.71-1.56-2.7-1.59L12,8,9.72,6.58Z"/><path class="cls-14" d="M9.84,7.94l2.31,1.31,2.36,1.35,2.7,1.56,2.69,1.58,2.34,1.4,2.27,1.37-.05.09-2.31-1.31-2.36-1.35-2.7-1.56L14.4,10.8,12.06,9.4,9.79,8Z"/></g></g></g></g></svg>